<svg width="141" height="141" viewBox="0 0 141 141" fill="none" xmlns="http://www.w3.org/2000/svg">
<path d="M61.4648 117.583V63.3758H79.5339V72.4103C79.5339 69.3988 83.1478 63.3758 97.6031 63.3758C112.058 63.3758 115.672 75.4219 115.672 81.4449V117.583H97.6031V90.4795C97.6031 88.2208 95.7962 83.7036 88.5685 83.7036C81.3408 83.7036 79.5339 88.2208 79.5339 90.4795V117.583H61.4648Z" stroke="white" stroke-width="6.77593" stroke-linejoin="round"/>
<path d="M47.9129 63.3758H29.8438V117.583H47.9129V63.3758Z" stroke="white" stroke-width="6.77593" stroke-linejoin="round"/>
<path d="M38.8783 29.4961C31.6507 29.4961 29.8438 34.0134 29.8438 38.5307C29.8438 44.1786 29.8438 49.8239 38.8783 49.8239C47.9129 49.8239 47.9129 44.1786 47.9129 38.5307C47.9129 34.0134 46.106 29.4961 38.8783 29.4961Z" stroke="white" stroke-width="6.77593" stroke-linejoin="round"/>
</svg>
