<svg width="141" height="141" viewBox="0 0 141 141" fill="none" xmlns="http://www.w3.org/2000/svg">
<path d="M102.296 74.4478C101.348 74.4478 100.358 74.1454 99.4102 73.9295C97.4914 73.5054 95.6058 72.9424 93.7682 72.2449C91.7701 71.5159 89.5739 71.5538 87.602 72.3512C85.6302 73.1486 84.022 74.6492 83.0871 76.5643L82.1396 78.5081C77.9447 76.1677 74.0899 73.261 70.6833 69.8692C67.3014 66.4526 64.4031 62.5866 62.0695 58.3795L63.8784 57.1701C65.7879 56.2324 67.2842 54.6196 68.0793 52.642C68.8744 50.6644 68.9121 48.4617 68.1853 46.4579C67.5014 44.611 66.9403 42.7207 66.5056 40.7994C66.2902 39.8492 66.118 38.8557 65.9888 37.8622C65.4657 34.8197 63.8768 32.0644 61.508 30.0926C59.1392 28.1208 56.1462 27.062 53.0681 27.1068H40.1474C38.2913 27.0894 36.4532 27.4732 34.7583 28.2322C33.0633 28.9912 31.5514 30.1075 30.3253 31.5052C29.0992 32.9029 28.1878 34.5492 27.6531 36.3319C27.1184 38.1146 26.973 39.992 27.2268 41.8361C29.5212 59.9318 37.7615 76.7452 50.6461 89.6204C63.5307 102.496 80.3251 110.699 98.3765 112.934H100.013C103.189 112.939 106.256 111.77 108.627 109.651C109.989 108.429 111.078 106.931 111.82 105.255C112.563 103.58 112.942 101.766 112.934 99.9325V86.9742C112.881 83.9738 111.792 81.0848 109.852 78.8004C107.911 76.5159 105.241 74.9775 102.296 74.4478V74.4478ZM104.449 100.364C104.448 100.978 104.317 101.584 104.065 102.142C103.813 102.701 103.444 103.199 102.985 103.604C102.504 104.021 101.941 104.332 101.333 104.518C100.725 104.704 100.084 104.76 99.4533 104.684C83.3235 102.61 68.3413 95.2091 56.8699 83.6494C45.3984 72.0898 38.0905 57.029 36.099 40.8426C36.0304 40.2099 36.0905 39.5698 36.2756 38.961C36.4606 38.3523 36.7668 37.7874 37.1757 37.3007C37.5793 36.84 38.0761 36.4707 38.633 36.2175C39.19 35.9642 39.7943 35.8329 40.4059 35.8321H53.3265C54.3281 35.8097 55.3061 36.1382 56.0921 36.7611C56.8782 37.3839 57.4233 38.2621 57.6334 39.2444C57.8057 40.4251 58.021 41.5913 58.2794 42.7432C58.777 45.0201 59.4391 47.2578 60.2606 49.4383L54.231 52.2459C53.7154 52.4832 53.2517 52.8202 52.8664 53.2377C52.481 53.6551 52.1817 54.1448 51.9857 54.6786C51.7896 55.2124 51.7005 55.7798 51.7237 56.3482C51.7468 56.9166 51.8817 57.4748 52.1206 57.9908C58.3191 71.3065 68.9917 82.0103 82.2688 88.2268C83.3173 88.6588 84.4935 88.6588 85.542 88.2268C86.0791 88.0341 86.5727 87.7363 86.9942 87.3508C87.4156 86.9652 87.7565 86.4995 87.9969 85.9807L90.6672 79.9335C92.8937 80.7321 95.1661 81.3956 97.4721 81.9204C98.6206 82.1796 99.7834 82.3956 100.961 82.5683C101.94 82.7791 102.816 83.3257 103.437 84.1141C104.058 84.9025 104.385 85.8833 104.363 86.8878L104.449 100.364Z" fill="white"/>
</svg>
