<svg width="93" height="93" viewBox="0 0 93 93" fill="none" xmlns="http://www.w3.org/2000/svg">
<path d="M12.3906 42.8193H43.0263V12.1836H12.3906V42.8193ZM20.0496 19.8425H35.3674V35.1604H20.0496V19.8425ZM12.3906 81.114H43.0263V50.4782H12.3906V81.114ZM20.0496 58.1372H35.3674V73.455H20.0496V58.1372ZM50.6853 12.1836V42.8193H81.321V12.1836H50.6853ZM73.6621 35.1604H58.3442V19.8425H73.6621V35.1604ZM50.7236 50.4782H58.3825V58.1372H50.7236V50.4782ZM58.3825 58.1372H66.0414V65.7961H58.3825V58.1372ZM50.7236 65.7961H58.3825V73.455H50.7236V65.7961ZM66.0414 65.7961H73.7004V73.455H66.0414V65.7961ZM73.7004 73.455H81.3593V81.114H73.7004V73.455ZM58.3825 73.455H66.0414V81.114H58.3825V73.455ZM66.0414 50.4782H73.7004V58.1372H66.0414V50.4782ZM73.7004 58.1372H81.3593V65.7961H73.7004V58.1372Z" fill="white"/>
</svg>
