<svg width="56" height="56" viewBox="0 0 56 56" fill="none" xmlns="http://www.w3.org/2000/svg">
<path d="M14.5029 39.1751C14.5029 34.5664 23.7204 32.0316 28.3291 32.0316C32.9378 32.0316 42.1553 34.5664 42.1553 39.1751V41.4795H14.5029M35.2422 20.7402C35.2422 22.5737 34.5138 24.3321 33.2174 25.6285C31.9209 26.925 30.1626 27.6533 28.3291 27.6533C26.4956 27.6533 24.7373 26.925 23.4408 25.6285C22.1444 24.3321 21.416 22.5737 21.416 20.7402C21.416 18.9068 22.1444 17.1484 23.4408 15.8519C24.7373 14.5555 26.4956 13.8271 28.3291 13.8271C30.1626 13.8271 31.9209 14.5555 33.2174 15.8519C34.5138 17.1484 35.2422 18.9068 35.2422 20.7402ZM7.58984 11.5228V43.7839C7.58984 45.0062 8.0754 46.1784 8.93971 47.0427C9.80401 47.907 10.9763 48.3926 12.1986 48.3926H44.4596C45.6819 48.3926 46.8542 47.907 47.7185 47.0427C48.5828 46.1784 49.0684 45.0062 49.0684 43.7839V11.5228C49.0684 10.3005 48.5828 9.12823 47.7185 8.26393C46.8542 7.39962 45.6819 6.91406 44.4596 6.91406H12.1986C10.9763 6.91406 9.80401 7.39962 8.93971 8.26393C8.0754 9.12823 7.58984 10.3005 7.58984 11.5228Z" fill="#1A3DA2"/>
</svg>
