<svg width="92" height="93" viewBox="0 0 92 93" fill="none" xmlns="http://www.w3.org/2000/svg">
<path d="M60.312 35.1653H67.4922C69.3965 35.1653 71.2228 35.9218 72.5694 37.2683C73.916 38.6149 74.6724 40.4412 74.6724 42.3455V76.8107C74.6724 78.715 73.916 80.5414 72.5694 81.8879C71.2228 83.2345 69.3965 83.991 67.4922 83.991H24.4107C22.5064 83.991 20.6801 83.2345 19.3335 81.8879C17.987 80.5414 17.2305 78.715 17.2305 76.8107V42.3455C17.2305 40.4412 17.987 38.6149 19.3335 37.2683C20.6801 35.9218 22.5064 35.1653 24.4107 35.1653H31.591M60.312 23.6769L45.9515 9.31641M45.9515 9.31641L31.591 23.6769M45.9515 9.31641V58.3216" stroke="white" stroke-width="5.7442" stroke-linecap="round" stroke-linejoin="round"/>
</svg>
