<svg width="141" height="141" viewBox="0 0 141 141" fill="none" xmlns="http://www.w3.org/2000/svg">
<path d="M117.979 70.0112C117.979 82.7145 112.933 94.8975 103.95 103.88C94.9678 112.863 82.7848 117.909 70.0815 117.909C57.3782 117.909 45.1952 112.863 36.2126 103.88C27.23 94.8975 22.1836 82.7145 22.1836 70.0112M117.979 70.0112C117.979 57.3079 112.933 45.1248 103.95 36.1422C94.9678 27.1597 82.7848 22.1133 70.0815 22.1133C57.3782 22.1133 45.1952 27.1597 36.2126 36.1422C27.23 45.1248 22.1836 57.3079 22.1836 70.0112M117.979 70.0112H22.1836" stroke="white" stroke-width="6.77593" stroke-linecap="round" stroke-linejoin="round"/>
<path d="M88.5164 70.0112C87.6115 87.527 81.1599 104.301 70.0941 117.909C59.0284 104.301 52.5768 87.527 51.6719 70.0112C52.5768 52.4953 59.0284 35.7211 70.0941 22.1133C81.1599 35.7211 87.6115 52.4953 88.5164 70.0112Z" stroke="white" stroke-width="6.77593" stroke-linecap="round" stroke-linejoin="round"/>
</svg>
