<svg width="574" height="122" viewBox="0 0 574 122" fill="none" xmlns="http://www.w3.org/2000/svg">
<path d="M92.3726 0H29.5789C13.3227 0 0.144531 13.2026 0.144531 29.4887V92.3984C0.144531 108.685 13.3227 121.887 29.5789 121.887H92.3726C108.629 121.887 121.807 108.685 121.807 92.3984V29.4887C121.807 13.2026 108.629 0 92.3726 0Z" fill="white"/>
<path fill-rule="evenodd" clip-rule="evenodd" d="M61.1263 99.8435C59.0493 99.8772 56.07 98.1894 56.07 98.1894C49.8283 95.0628 37.6297 82.9034 36.1291 67.4919C34.6731 52.5412 42.4179 37.9545 60.9336 37.8908H60.9621C60.9734 37.8908 60.9847 37.8908 60.9959 37.8908L61.0552 37.8906C79.5709 37.9543 87.3155 52.5412 85.8597 67.4919C84.3589 82.9034 72.1605 95.0628 65.9188 98.1894C65.9188 98.1894 63.1055 99.8115 61.1263 99.8435Z" fill="#042582"/>
<path fill-rule="evenodd" clip-rule="evenodd" d="M77.8908 28.9828C80.3426 27.5083 83.4719 25.6789 86.1898 24.2055C87.5695 23.4577 88.8359 22.8051 89.8508 22.338C90.3588 22.1041 90.7954 21.9208 91.1465 21.7953C91.5187 21.6625 91.731 21.6189 91.8154 21.6163C92.7012 21.5875 93.1699 21.019 93.3601 20.5202C93.5597 19.9974 93.5452 19.3606 93.2859 18.8642C93.1554 18.6142 92.9478 18.3716 92.6321 18.2095C92.3009 18.0393 91.8941 17.9807 91.4512 18.0552C91.0268 18.1267 90.5878 18.3164 90.134 18.6128C89.6768 18.9115 89.1792 19.335 88.6381 19.9051C85.3185 23.4024 80.1542 26.0622 78.0004 26.9476L77.9199 26.9809L77.8615 27.0328C77.7467 27.1353 77.5821 27.2646 77.3854 27.3952C77.1071 27.3034 76.7937 27.2876 76.5168 27.3055C76.0788 27.3334 75.6138 27.4494 75.2055 27.609C74.7983 27.7681 74.4079 27.9861 74.1429 28.242C73.8807 28.4952 73.6901 28.8422 73.8742 29.2072L73.8748 29.2083C73.8754 29.2097 73.8764 29.2124 73.8779 29.2167C73.8799 29.2232 73.8824 29.2327 73.8848 29.2452C73.89 29.2709 73.8939 29.305 73.8951 29.3491C73.8976 29.438 73.8894 29.5534 73.8685 29.6963C73.8268 29.9817 73.7385 30.3515 73.6102 30.7895C73.354 31.6644 72.9476 32.7826 72.4707 33.9883C71.5175 36.3978 70.2923 39.1328 69.4547 40.9156L69.144 41.577L72.5109 40.8197L72.0395 40.4103C71.9134 40.3009 71.8634 40.0789 71.96 39.7395C72.0506 39.4217 72.2432 39.1005 72.3912 38.9071L72.4348 38.8502L72.4477 38.7858C72.7484 37.2838 74.0666 33.4696 76.9001 30.3402C77.3821 29.808 77.7045 29.3592 77.8908 28.9828ZM44.2037 29.0204C41.7517 27.5457 38.6224 25.7165 35.9045 24.243C34.525 23.495 33.2584 22.8427 32.2435 22.3756C31.7355 22.1417 31.2989 21.9581 30.9478 21.8329C30.5757 21.7 30.3633 21.6563 30.2789 21.6536C29.3931 21.6251 28.9244 21.0566 28.7342 20.5576C28.5346 20.0349 28.5493 19.3981 28.8084 18.9017C28.9389 18.6516 29.1467 18.4091 29.4622 18.247C29.7936 18.0768 30.2002 18.0182 30.6431 18.0927C31.0675 18.1642 31.5065 18.3539 31.9605 18.6503C32.4175 18.949 32.9151 19.3725 33.4562 19.9425C36.7758 23.44 41.9401 26.0998 44.0939 26.9852L44.1744 27.0182L44.2328 27.0704C44.3476 27.1728 44.5122 27.302 44.7089 27.4328C44.9872 27.341 45.3006 27.3252 45.5777 27.3429C46.0155 27.371 46.4805 27.487 46.8888 27.6465C47.296 27.8057 47.6864 28.0235 47.9514 28.2796C48.2136 28.5327 48.4044 28.8795 48.2201 29.2446L48.2195 29.2458C48.2193 29.2464 48.2189 29.2475 48.2185 29.2487C48.2179 29.2499 48.2172 29.2518 48.2166 29.254C48.2144 29.2608 48.2119 29.2703 48.2095 29.2828C48.2043 29.3082 48.2006 29.3425 48.1994 29.3867C48.1967 29.4754 48.205 29.591 48.2259 29.7337C48.2675 30.0193 48.3558 30.3889 48.4841 30.8271C48.7403 31.7017 49.1467 32.8202 49.6236 34.0256C50.5768 36.4354 51.802 39.1703 52.6396 40.9532L52.9503 41.6145L49.5834 40.8571L50.0548 40.4477C50.1809 40.3384 50.2311 40.1163 50.1343 39.7771C50.0438 39.459 49.8511 39.1379 49.7031 38.9447L49.6595 38.8876L49.6466 38.8231C49.3459 37.3214 48.0277 33.507 45.1942 30.3778C44.7122 29.8454 44.3898 29.3965 44.2037 29.0204Z" fill="#042582"/>
<path fill-rule="evenodd" clip-rule="evenodd" d="M48.8635 88.0959C50.0934 89.2077 51.3686 90.3604 52.5468 91.4893C53.0905 92.01 53.7708 92.6802 54.279 93.2909C54.2981 93.3137 54.3215 93.3369 54.3454 93.3609C54.42 93.435 54.5002 93.5147 54.4705 93.6021C54.4625 93.6258 54.4358 93.6342 54.4098 93.6424C54.3993 93.6457 54.3889 93.649 54.3799 93.6533C54.2817 93.6993 54.2124 93.7278 54.1553 93.7512C53.9944 93.8175 53.931 93.8434 53.5968 94.1075C52.1871 95.2205 51.2269 96.734 50.4596 98.346C50.4166 98.4364 50.3789 98.5294 50.3412 98.6224C50.2887 98.7512 50.2364 98.8799 50.1702 99.0019C50.1688 99.0041 50.1676 99.0064 50.1663 99.0088C50.1346 99.0676 50.0901 99.1495 50.0266 99.1421C49.9005 99.1277 49.8101 98.7834 49.7523 98.5629C49.7339 98.4928 49.7187 98.4352 49.7068 98.4046C49.5929 98.113 49.5734 98.3003 49.5535 98.4906C49.5511 98.515 49.5484 98.5395 49.5457 98.5629C49.3943 99.856 49.3379 101.171 49.5759 102.457C49.6995 103.124 49.9747 103.814 50.301 104.412C50.3539 104.508 50.342 104.527 50.1952 104.452C49.165 103.93 48.4382 102.739 47.9217 101.75C47.1464 100.265 46.8593 98.7072 46.7586 97.0445C46.6297 94.9177 46.6158 92.7045 46.9173 90.591C47.0634 89.5654 47.4348 88.6948 47.8588 87.7739C47.8791 87.7298 47.8986 87.6797 47.9187 87.6281C47.956 87.532 47.9953 87.4312 48.0451 87.3555C48.3146 87.5998 48.588 87.8468 48.8635 88.0959ZM73.2989 88.0961C72.069 89.2077 70.7938 90.3604 69.6156 91.4893C69.0718 92.01 68.3916 92.6802 67.8833 93.2909C67.8643 93.3137 67.8409 93.3369 67.8169 93.3609C67.7423 93.435 67.6622 93.5149 67.6919 93.6021C67.6999 93.6258 67.7266 93.6342 67.7526 93.6424C67.763 93.6457 67.7735 93.649 67.7825 93.6533C67.8807 93.6993 67.95 93.7278 68.0071 93.7512C68.168 93.8175 68.2314 93.8436 68.5656 94.1075C69.9753 95.2205 70.9354 96.734 71.7028 98.346C71.7458 98.4364 71.7835 98.5294 71.8212 98.6224C71.8737 98.7512 71.926 98.8799 71.9922 99.0019L71.9961 99.0088C72.0278 99.0676 72.0723 99.1495 72.1358 99.1421C72.2619 99.1277 72.3523 98.7836 72.4101 98.5629C72.4285 98.4928 72.4437 98.4352 72.4556 98.4048C72.5695 98.113 72.589 98.3003 72.6089 98.4906C72.6113 98.515 72.614 98.5395 72.6166 98.5629C72.7681 99.856 72.8245 101.171 72.5865 102.457C72.4629 103.124 72.1877 103.814 71.8614 104.412C71.8085 104.508 71.8204 104.527 71.9672 104.452C72.9974 103.93 73.7242 102.739 74.2407 101.75C75.016 100.266 75.3031 98.7072 75.4037 97.0447C75.5327 94.9177 75.5466 92.7047 75.2451 90.591C75.099 89.5654 74.7276 88.6948 74.3036 87.7739C74.2833 87.7298 74.2638 87.6797 74.2437 87.6281C74.2064 87.532 74.1671 87.4312 74.1173 87.3555C73.8478 87.5998 73.5744 87.8468 73.2989 88.0961Z" fill="#042582"/>
<path d="M55.6746 64.0512C55.6746 72.6051 50.1641 79.5396 43.3666 79.5396C36.5691 79.5396 31.0586 72.6051 31.0586 64.0512C31.0586 55.497 36.5691 48.5625 43.3666 48.5625C50.1641 48.5625 55.6746 55.497 55.6746 64.0512Z" fill="white"/>
<path fill-rule="evenodd" clip-rule="evenodd" d="M43.3666 77.5736C48.6867 77.5736 53.7122 71.9612 53.7122 64.0512C53.7122 56.1409 48.6867 50.5285 43.3666 50.5285C38.0465 50.5285 33.021 56.1409 33.021 64.0512C33.021 71.9612 38.0465 77.5736 43.3666 77.5736ZM43.3666 79.5396C50.1641 79.5396 55.6746 72.6051 55.6746 64.0512C55.6746 55.497 50.1641 48.5625 43.3666 48.5625C36.5691 48.5625 31.0586 55.497 31.0586 64.0512C31.0586 72.6051 36.5691 79.5396 43.3666 79.5396Z" fill="#042582"/>
<path d="M91.2642 64.051C91.2642 72.6051 85.7538 79.5396 78.9564 79.5396C72.1589 79.5396 66.6484 72.6051 66.6484 64.051C66.6484 55.497 72.1589 48.5625 78.9564 48.5625C85.7538 48.5625 91.2642 55.497 91.2642 64.051Z" fill="white"/>
<path fill-rule="evenodd" clip-rule="evenodd" d="M78.9564 77.5736C84.2763 77.5736 89.3021 71.9612 89.3021 64.051C89.3021 56.1409 84.2763 50.5285 78.9564 50.5285C73.6364 50.5285 68.6108 56.1409 68.6108 64.051C68.6108 71.9612 73.6364 77.5736 78.9564 77.5736ZM78.9564 79.5396C85.7538 79.5396 91.2642 72.6051 91.2642 64.051C91.2642 55.497 85.7538 48.5625 78.9564 48.5625C72.1589 48.5625 66.6484 55.497 66.6484 64.051C66.6484 72.6051 72.1589 79.5396 78.9564 79.5396Z" fill="#042582"/>
<path d="M559.634 20.9492C562.278 20.9492 564.648 21.5583 566.745 22.7767C568.842 23.9499 570.483 25.5969 571.668 27.7176C572.853 29.7933 573.446 32.1397 573.446 34.7568C573.446 37.374 572.853 39.7429 571.668 41.8637C570.483 43.9844 568.842 45.654 566.745 46.8723C564.648 48.0455 562.278 48.6321 559.634 48.6321C556.945 48.6321 554.552 48.0455 552.455 46.8723C550.358 45.654 548.717 43.9844 547.532 41.8637C546.347 39.7429 545.754 37.374 545.754 34.7568C545.754 32.1397 546.347 29.7933 547.532 27.7176C548.717 25.5969 550.358 23.9499 552.455 22.7767C554.552 21.5583 556.945 20.9492 559.634 20.9492ZM559.634 45.9247C562.917 45.9247 565.56 44.8869 567.566 42.8113C569.617 40.7356 570.643 38.0508 570.643 34.7568C570.643 31.4629 569.617 28.778 567.566 26.7024C565.56 24.6267 562.917 23.5889 559.634 23.5889C556.306 23.5889 553.64 24.6267 551.634 26.7024C549.674 28.778 548.694 31.4629 548.694 34.7568C548.694 38.0508 549.674 40.7356 551.634 42.8113C553.64 44.8869 556.306 45.9247 559.634 45.9247ZM565.788 31.914C565.788 32.997 565.492 33.922 564.899 34.6891C564.352 35.4111 563.577 35.93 562.574 36.2459L566.404 41.8637L562.096 41.9314L558.814 36.5166H557.651V41.9314H554.096V27.3793H560.66C562.21 27.3793 563.441 27.7854 564.352 28.5975C565.309 29.4098 565.788 30.5153 565.788 31.914ZM557.651 33.6062H560.455C560.956 33.6062 561.367 33.4708 561.686 33.2001C562.05 32.9294 562.232 32.5458 562.232 32.0495C562.232 31.5531 562.05 31.1921 561.686 30.9665C561.367 30.6958 560.956 30.5603 560.455 30.5603H557.651V33.6062Z" fill="white"/>
<path d="M191.866 28.1141L213.717 86.6875H195.605L192.448 76.9668H173.422L170.265 86.6875H152.402L174.17 28.1141H191.866ZM189.125 64.5044L182.976 44.8968L176.828 64.5044H189.125ZM246.282 43.8167C258.079 43.8167 263.064 51.128 263.064 64.0059V86.6875H247.943V64.0059C247.943 58.2732 246.614 56.2792 241.712 56.2792C237.309 56.2792 234.401 59.4363 233.57 64.4213V86.6875H218.449V44.8968H233.155V49.9649C235.896 46.6415 240.383 43.8167 246.282 43.8167ZM290.549 56.9438V86.6875H275.428V56.9438H268.117V44.8968H275.428V28.5295H290.549V44.8968H302.596V56.9438H290.549ZM325.47 44.9799C325.47 47.3893 328.046 48.3863 337.933 51.2111C352.472 55.2822 356.709 60.9318 356.709 69.7386C356.709 83.1149 345.41 87.7676 330.538 87.7676C320.734 87.7676 312.26 85.4413 305.53 81.204L311.18 68.4093C316.746 71.5664 322.645 73.6435 329.707 73.6435C337.019 73.6435 339.511 72.8127 339.511 70.4033C339.511 67.6615 337.434 66.3322 325.47 62.9258C312.841 59.3532 308.272 53.6205 308.272 44.8968C308.272 33.7637 316.663 27.4494 332.615 27.4494C340.84 27.4494 347.819 29.1111 355.048 33.5975L348.733 45.3953C343.665 42.6536 339.179 41.2412 333.363 41.2412C327.381 41.2412 325.47 42.3212 325.47 44.9799ZM382.638 56.9438V86.6875H367.517V56.9438H360.206V44.8968H367.517V28.5295H382.638V44.8968H394.685V56.9438H382.638ZM432.773 44.8968H447.894V86.6875H432.773V81.6194C430.114 84.9428 425.628 87.7676 419.729 87.7676C407.765 87.7676 398.044 77.0499 398.044 65.5844C398.044 53.6205 407.433 43.8167 419.729 43.8167C425.628 43.8167 430.114 46.7246 432.773 50.0479V44.8968ZM433.438 67.163V64.5044C432.524 59.5194 428.702 56.2792 423.717 56.2792C417.07 56.2792 413.664 59.6856 413.664 65.5844C413.664 70.9848 417.403 75.3051 423.717 75.3051C428.702 75.3051 432.524 72.148 433.438 67.163ZM479.689 75.3051C482.846 75.3051 486.086 74.9728 490.573 73.3112V86.0228C487.166 87.186 483.178 87.7676 479.107 87.7676C466.063 87.7676 454.515 78.6285 454.515 65.6675C454.515 52.4573 466.146 43.8167 479.107 43.8167C483.677 43.8167 486.751 44.5645 490.573 45.9769V58.6055C486.834 57.0269 482.68 56.2792 479.107 56.2792C473.291 56.2792 470.217 59.4363 470.134 65.6675C470.134 71.6495 474.205 75.3051 479.689 75.3051ZM543.997 86.6875H525.22L512.592 73.6435V86.6875H497.637V16.8148H512.592V53.6205L523.725 44.8968H542.751L520.152 62.5935L543.997 86.6875Z" fill="white"/>
</svg>
