<svg width="141" height="141" viewBox="0 0 141 141" fill="none" xmlns="http://www.w3.org/2000/svg">
<path d="M119.922 47.2053C119.386 45.0614 118.293 43.0971 116.754 41.5108C115.215 39.9245 113.285 38.7723 111.159 38.1707C103.389 36.2734 72.3099 36.2734 72.3099 36.2734C72.3099 36.2734 41.231 36.2734 33.4613 38.3514C31.3347 38.953 29.4046 40.1052 27.8659 41.6915C26.3272 43.2778 25.2343 45.2421 24.6977 47.386C23.2757 55.2711 22.5802 63.2702 22.6198 71.2824C22.5691 79.355 23.2647 87.415 24.6977 95.3596C25.2893 97.4368 26.4066 99.3264 27.9418 100.846C29.4769 102.365 31.378 103.463 33.4613 104.033C41.231 106.111 72.3099 106.111 72.3099 106.111C72.3099 106.111 103.389 106.111 111.159 104.033C113.285 103.431 115.215 102.279 116.754 100.693C118.293 99.1063 119.386 97.1421 119.922 94.9982C121.333 87.1724 122.029 79.2344 122 71.2824C122.051 63.2098 121.355 55.1498 119.922 47.2053V47.2053Z" stroke="white" stroke-width="6.77593" stroke-linecap="round" stroke-linejoin="round"/>
<path d="M62.1445 86.0548L88.1189 71.2833L62.1445 56.5117V86.0548Z" stroke="white" stroke-width="6.77593" stroke-linecap="round" stroke-linejoin="round"/>
</svg>
